<?xml version="1.0" encoding="utf-8"?>
<!-- Generator: Adobe Illustrator 25.2.1, SVG Export Plug-In . SVG Version: 6.00 Build 0)  -->
<svg version="1.1" id="Capa_1" xmlns="http://www.w3.org/2000/svg" xmlns:xlink="http://www.w3.org/1999/xlink" x="0px" y="0px"
	 viewBox="0 0 178.61 157.37" style="enable-background:new 0 0 178.61 157.37;" xml:space="preserve">
<style type="text/css">
	.st0{fill:#224142;}
	.st1{fill:#B3D7EB;}
	.st2{fill:#C2BCAB;}
	.st3{fill:#BCDCED;}
</style>
<g>
	<path class="st0" d="M133.88,152.13H48.64c-23.14,0-41.9-18.76-41.9-41.9V46.66c0-23.14,18.76-41.9,41.9-41.9h85.24
		c23.14,0,41.9,18.76,41.9,41.9v63.57C175.78,133.37,157.02,152.13,133.88,152.13z"/>
	<g>
		<path class="st1" d="M77.83,85.32c-1.89,0-3.76-0.03-5.59-0.08c-1.84-0.05-3.56-0.16-5.16-0.32v50.89H45.99V20.17h33.22
			c5.57,0,10.43,0.23,14.59,0.68c4.16,0.45,7.88,1.13,11.15,2.03c7.86,2.22,13.91,5.77,18.16,10.65c4.24,4.87,6.37,11.07,6.37,18.59
			c0,5.14-1.15,9.76-3.44,13.87c-2.3,4.11-5.65,7.59-10.07,10.45c-4.42,2.86-9.81,5.06-16.18,6.6
			C93.41,84.56,86.1,85.32,77.83,85.32z M67.08,68.56c1.2,0.16,2.74,0.28,4.6,0.36c1.86,0.08,3.8,0.12,5.81,0.12
			c5.68,0,10.44-0.42,14.29-1.27c3.84-0.85,6.94-2.03,9.3-3.54c2.35-1.51,4.04-3.34,5.08-5.48c1.03-2.14,1.55-4.49,1.55-7.03
			c0-3.13-0.78-5.83-2.33-8.1c-1.55-2.28-4.25-4.05-8.09-5.32c-2.01-0.64-4.49-1.1-7.45-1.39c-2.95-0.29-6.58-0.44-10.89-0.44H67.08
			V68.56z"/>
	</g>
	<path class="st2" d="M143.86,51.05c0,5.01-1.12,9.6-3.37,13.78c-2.25,4.18-5.96,7.65-11.14,10.41v0.35
		c2.88,0.98,5.51,2.23,7.9,3.76c2.39,1.53,4.43,3.34,6.13,5.44c1.7,2.1,3.02,4.48,3.97,7.13c0.95,2.65,1.43,5.61,1.43,8.9
		c0,2.82-0.45,5.85-1.34,9.07c-0.89,3.23-2.46,6.35-4.71,9.37c-2.25,3.02-5.24,5.8-8.98,8.34c-3.74,2.53-8.47,4.55-14.17,6.05
		c-1.44,0.35-3.01,0.66-4.71,0.95c-1.7,0.29-3.58,0.53-5.66,0.73c-2.07,0.2-4.38,0.35-6.91,0.43c-2.53,0.09-5.39,0.13-8.55,0.13
		h-33.6V20.29h40.17c8.58,0,15.49,0.86,20.73,2.59c3.91,1.27,7.31,2.92,10.19,4.97c2.88,2.05,5.26,4.32,7.13,6.83
		c1.87,2.5,3.25,5.15,4.15,7.95C143.41,45.42,143.86,48.22,143.86,51.05z M100.41,67.89c5.76,0,10.05-0.58,12.87-1.73
		c3.17-1.32,5.43-3.15,6.78-5.49c1.35-2.33,2.03-4.97,2.03-7.9c0-3.05-0.78-5.77-2.33-8.16c-1.55-2.39-4.21-4.16-7.95-5.31
		c-1.55-0.46-3.37-0.79-5.44-0.99c-2.07-0.2-4.64-0.3-7.69-0.3H81.32v29.89H100.41z M81.32,85.6v32.57h13.82
		c3.68,0,6.85-0.1,9.5-0.3c2.65-0.2,4.93-0.53,6.83-0.99c2.94-0.63,5.38-1.48,7.34-2.55c1.96-1.06,3.54-2.27,4.75-3.63
		c1.21-1.35,2.07-2.85,2.59-4.49c0.52-1.64,0.78-3.38,0.78-5.23c0-3.22-0.89-6.05-2.68-8.47c-1.79-2.42-4.58-4.23-8.38-5.44
		c-1.67-0.52-3.63-0.89-5.87-1.12c-2.25-0.23-5.13-0.35-8.64-0.35H81.32z"/>
	<g>
		<g>
			<g>
				<g>
					<g>
						<polygon class="st3" points="122.13,22.48 122.02,22.5 122.28,22.68 						"/>
						<path class="st3" d="M122.66,23.3c0.05-0.01,0.14,0.01,0.2,0c-0.27-0.13-0.52-0.33-0.77-0.53
							C121.58,22.92,122.98,23.26,122.66,23.3z"/>
						<path class="st3" d="M122.57,23.39c-0.21,0.11,0.18,0.2,0.31,0.25C122.58,23.56,122.99,23.41,122.57,23.39z"/>
						<path class="st3" d="M122.41,34.01c0-0.01-0.01-0.03-0.02-0.04C122.38,33.99,122.39,34,122.41,34.01z"/>
						<path class="st3" d="M123.65,36.8l0.31,0.04c-0.54-0.53,0.05-1.09-0.17-1.64l0.11,0.04c0.17-1.37-0.32-2.66-0.52-4.03
							c0.03,0.02,0.12,0.03,0.16,0.05c-0.11-0.07-0.3-0.15-0.28-0.22c0.07-0.02,0.14,0.02,0.18,0.05c0.52-0.28-0.31-0.85,0.1-1.02
							c-0.05-0.08-0.27-0.12-0.43-0.08c-0.11-1.07-0.18-2.21-0.56-3.32c0.07-0.05,0.21-0.06,0.39-0.04
							c-0.81-0.96-0.45-1.93-0.24-2.92c-0.22-0.06-0.24,0.09-0.46-0.03c-0.3,0.32,0.5,0.62,0.08,0.89l-0.21-0.05
							c-0.15,0.2,0.53,0.07,0.25,0.27c-0.18,0.08-0.27-0.03-0.29,0.01c0.07,0.44-0.14,0.89,0.36,1.32
							c-0.46,0.09-0.03,0.46-0.48,0.61c0.18,0.12,0.13,0.23,0.43,0.28c-0.28,1.5,0.13,3.04,0.06,4.58c0.88,0.74-0.22,1.57,0.06,2.43
							c-0.03,0-0.07,0-0.09,0c0.21,0.28,0.3,0.69,0.18,1.02l0.37,0.29c-0.85,1.96-0.39,4.02-0.84,6.02
							c-0.36,2.28-1.17,4.2-0.24,6.54c-0.09-0.01-0.14,0-0.17-0.06c0.11,0.66-0.28,1.2-0.17,1.83l-0.09-0.01
							c0.55,1.6-0.54,3.07-0.02,4.63c-0.38,1.73-0.81,3.68-1.22,5.51l-0.16-0.06c-0.02,0.39-0.17,0.73-0.34,1.06
							c-0.16,0.33-0.38,0.63-0.63,0.91c-0.24,0.29-0.43,0.54-0.78,0.91c-0.16,0.18-0.31,0.36-0.44,0.55l-0.1,0.14
							c-0.05,0.05-0.13,0.1-0.19,0.15c-0.13,0.1-0.24,0.2-0.35,0.3c-0.37,0.21-0.73,0.43-1.03,0.65c-0.23,0.19-0.34,0.35-0.44,0.51
							c-0.09,0.15-0.17,0.32-0.04,0.3c0.07,0.02,0.12,0.05,0.12,0.09c0,0.03-0.07,0-0.18,0.02l-0.2,0.04l-0.03,0l0.11-0.01l0.2-0.02
							c0.54-0.05,0.78-0.01,1.01,0.08c0.04,0.2,0.77,0.29,1.64,0.06c0.86-0.16,1.29-0.36,1.54,0.13c1.63,1.58,3.43,1.06,5.49,0.85
							c0.38,0.25,0.78,0.41,1.2,0.51c0.42,0.12,0.84,0.22,1.27,0.33c0.43,0.1,0.84,0.25,1.21,0.48c0.37,0.23,0.72,0.49,0.94,0.94
							c0.5-0.06,0.76,0.33,0.99,0.76c0.22,0.44,0.36,0.96,0.76,1.14l0.11-0.19c-0.18,0.71,1.16-0.31,0.66,0.59l-0.05,0.01
							c-0.22,0.49,1.06-0.62,0.74-0.1l0.19-0.16c0.2,0.09-0.17,0.22-0.12,0.4c0.06,0.02,0.33-0.31,0.32-0.12
							c-0.68,0.75,0.52,0.19-0.27,1c-0.08-0.07-0.2,0.42-0.53,0.43c-0.04,0.13,0.23,0.3,0.56-0.05c0.39-0.33,0.81-0.55,0.95-0.97
							l-0.3,0.23c0.22-0.31,0.1-0.17,0.28-0.38c-0.17-0.23,0.19-0.64,0.19-0.94c-0.01,0.01-0.01,0.02-0.03,0.03
							c-0.42,0.22-0.37-0.1-0.41-0.23l0.11-0.18c0.24-0.37-0.81,0.41-0.25-0.09c-0.54-0.29-1.1-0.66-1.61-1.06
							c-0.24,0.18-0.38-0.32-0.58,0.21c0.23-0.61-0.11-0.99-0.27-1.07c0.04-0.05,0.08-0.1,0.09-0.06c0.12-0.88-0.74,0.42-0.52-0.6
							c-0.39,0.58-0.41-0.52-0.98,0.13c0.04-0.15,0.09-0.28,0.16-0.39c-0.52-0.27-0.99-0.82-1.45-1.05
							c-0.64,0.4-0.86-0.66-1.51-0.01c-0.21-0.28-0.57-0.76-1.08-0.58l0.07-0.09c-0.46-0.12-1.05-0.24-1.5,0.19
							c0.08-0.82-0.16-0.72-0.29-1.02c-0.4,0.27-1,0.03-1.53,0.26c0.01-0.38-0.42,0.07-0.33-0.47c-0.38,0.19-0.76,0.31-1.13,0.34
							c-0.19,0.02-0.37,0.02-0.56,0c-0.16-0.01-0.43-0.04-0.46-0.06c-0.32-0.11-0.45-0.4,0.03-0.74l0.05-0.03
							c-0.37,0.26-1.36,0.82-2.1,1.14c0.06-0.04,0.2-0.12,0.22-0.11c-0.35,0.07,0.44-0.38,0.17-0.3c0.14-0.06,0.13-0.05,0.35-0.15
							c-0.28,0.1-0.13,0.01,0.01-0.07c0.13-0.07,0.25-0.13-0.27,0.05l0.32-0.12l-0.53,0.17c0.43-0.15,1.07-0.37,0.95-0.32
							c0-0.01-0.01-0.01-0.03-0.02c-0.03,0-0.06,0-0.02-0.01c0.03-0.01,0.04,0,0.03,0c-0.01-0.01-0.06-0.03-0.05-0.14
							c-0.02-0.21,0.19-0.77,0.84-1.96l0.11,0.15c-0.02-0.18-0.04-0.36-0.08-0.54c0.08,0.04,0.11,0.08,0.14,0.11
							c0.49-0.41,0.29-1.15,0.52-1.63c0.08,0.03,0.22,0.17,0.34,0.13c-0.33-0.54,0.82-0.42-0.08-0.93c0.05,0,0.27,0.05,0.34,0.12
							c0.03-1.18,0.33-2.27,0.74-3.33c-0.71-1.1,0.32-1.95-0.25-3.02l0.18,0.04c-0.43-1.32,0.43-2.5,0.46-3.79
							c0.14-0.52-0.04-0.9,0.01-1.43l0.23,0.01c-0.76-0.98,0.96-1.8,0.1-2.82l0.3,0.09c-0.47-0.18,0.21-0.55-0.61-0.56l0.26-0.14
							c-1.04-0.72,0.6-1.11-0.06-1.94l0.19,0.06c-0.14-0.22-0.24-0.46-0.05-0.61c0.03,0.03,0.09,0.02,0.13,0.07
							c0.82-0.6,0-1.37,0.07-2.05l0.36,0.1c-0.41-0.35,0.02-0.94-0.15-1.38l0.17,0.03l-0.23-0.23l0.35,0.01
							C123.94,37.9,123.67,37.35,123.65,36.8z"/>
						<path class="st3" d="M123.43,31.1c0,0,0,0-0.01,0.01C123.45,31.12,123.45,31.11,123.43,31.1z"/>
						<path class="st3" d="M134.52,70.24c0.01,0.03,0.01,0.07,0.01,0.1C134.57,70.29,134.52,70.27,134.52,70.24z"/>
					</g>
				</g>
			</g>
		</g>
	</g>
	<g>
		<g>
			<g>
				<g>
					<g>
						<polygon class="st3" points="114.64,86.83 114.74,86.81 114.46,86.79 						"/>
						<path class="st3" d="M114.01,86.65c-0.05,0-0.13,0.01-0.18,0.02l0.79,0.09C115.06,86.68,113.72,86.69,114.01,86.65z"/>
						<path class="st3" d="M114.09,86.61c0.18-0.05-0.19-0.05-0.32-0.05C114.06,86.56,113.69,86.64,114.09,86.61z"/>
						<path class="st3" d="M112.89,83.02c0,0,0.02,0,0.03,0C112.92,83.01,112.91,83.01,112.89,83.02z"/>
						<path class="st3" d="M111.36,82.87l-0.25,0.15c0.53-0.14,0.18,0.28,0.45,0.31l-0.09,0.04c0.09,0.42,0.73,0.52,1.09,0.86
							c-0.03,0.01-0.11,0.03-0.15,0.04c0.1-0.02,0.29-0.07,0.27-0.03c-0.06,0.03-0.13,0.04-0.16,0.05
							c-0.42,0.26,0.39,0.15,0.06,0.33c0.06,0.01,0.25-0.05,0.39-0.11c0.24,0.3,0.4,0.66,0.87,0.97c-0.06,0.03-0.19,0.06-0.36,0.08
							c0.83,0.19,0.55,0.63,0.45,0.96c0.21,0,0.22-0.05,0.43-0.03c0.25-0.14-0.52-0.17-0.16-0.3l0.2-0.01
							c0.12-0.09-0.5,0.03-0.25-0.07c0.16-0.05,0.25-0.02,0.27-0.03c-0.1-0.15,0.06-0.35-0.43-0.43c0.43-0.11-0.01-0.17,0.38-0.3
							c-0.18-0.01-0.14-0.06-0.43-0.02c0.05-0.3-0.07-0.57-0.21-0.82c-0.15-0.25-0.36-0.47-0.44-0.73c-0.85,0.1-0.08-0.58-0.48-0.72
							c0.03-0.02,0.05-0.03,0.08-0.04c-0.23,0.01-0.38-0.06-0.34-0.21l-0.35,0.09c0.28-0.95-0.54-1.24-0.67-1.93
							c-0.27-0.73-0.12-1.55-1.41-1.5c0.07-0.04,0.1-0.07,0.14-0.08c-0.26-0.07-0.08-0.39-0.33-0.45L110,78.9
							c-0.84-0.04-0.39-0.85-1.24-0.91c-0.2-0.52-0.45-1.07-0.86-1.55l0.16-0.05c-0.46-0.36,0.26-1.02-0.1-1.39
							c0.3-0.52-1.1-0.81-0.68-1.38c0.79-0.37-0.98-0.62-0.15-0.98c1.21-0.65,0.41-1.12-0.33-1.75c0.46-0.52-0.69-1.15,0.3-1.61
							c-0.57-0.3,0.78-0.45,0.64-0.74l-0.21-0.01c0.63-0.03-0.85-0.32,0.08-0.27l0.04,0.02c0.47,0.01-1.09-0.26-0.53-0.22
							l-0.23-0.04c-0.06-0.07,0.26,0.03,0.36-0.01c-0.03-0.02-0.42-0.06-0.28-0.08c0.94,0.11-0.19-0.18,0.87-0.05
							c0,0.03,0.42,0,0.63,0.11c0.11-0.01,0.07-0.12-0.38-0.17c-0.48-0.07-0.89-0.17-1.26-0.16l0.35,0.06
							c-0.35-0.03-0.18-0.01-0.44-0.03c-0.05,0.08-0.56,0.02-0.78,0.06c0.01,0,0.02,0,0.04,0c0.41,0.1,0.16,0.12,0.1,0.15l-0.2-0.01
							c-0.41-0.03,0.78,0.2,0.09,0.09c0.15,0.2,0.13,0.4,0.11,0.6c0.26,0.06-0.04,0.15,0.48,0.16c-0.59-0.01-0.75,0.13-0.73,0.18
							c-0.05-0.01-0.12-0.02-0.09-0.02c-0.77,0.04,0.69,0.19-0.25,0.21c0.65,0.07-0.23,0.17,0.54,0.29c-0.15,0-0.28-0.01-0.39-0.02
							c-0.03,0.18-0.29,0.36-0.33,0.52c0.57,0.17-0.27,0.32,0.52,0.47c-0.17,0.09-0.5,0.23-0.19,0.37l-0.1-0.02
							c0.04,0.15,0.08,0.34,0.58,0.45c-0.76,0.04-0.61,0.1-0.86,0.17c0.35,0.1,0.24,0.31,0.56,0.45c-0.35,0.03,0.15,0.12-0.36,0.14
							c1,0.41,0.7,0.91-0.01,1.46l-0.04,0c0.28,0.04,0.9,0.05,1.27,0.07c-0.04,0.01-0.13,0.02-0.13,0.01
							c0.1,0.07-0.39,0.2-0.29,0.27c-0.08,0.01-0.08,0.01-0.16,0c0.23,0.05-0.38,0.21,0.02,0.25L105.99,74l0.2,0.03
							c-0.17,0.02-0.42,0.05-0.37,0.01c-0.03,0.77,0.91,1.35,1.01,2.07l-0.16,0.02l0.31,0.06c-0.08,0.02-0.12,0.03-0.16,0.03
							c-0.23,0.26,0.28,0.3,0.26,0.49c-0.08,0.02-0.24,0.05-0.32,0.1c0.47-0.02-0.49,0.4,0.43,0.15c-0.04,0.02-0.24,0.09-0.32,0.11
							c0.43,0.24,0.55,0.59,0.54,1c0.91-0.08,0.36,0.55,1.11,0.52l-0.15,0.08c0.69,0.07,0.37,0.72,0.68,1.02
							c0.03,0.18,0.26,0.17,0.36,0.3l-0.18,0.12c0.84-0.22-0.27,0.91,0.64,0.65l-0.25,0.15c0.4-0.22-0.03,0.24,0.6-0.22l-0.16,0.18
							c0.95-0.43-0.17,0.57,0.51,0.38l-0.16,0.09c0.15-0.03,0.29-0.04,0.18,0.1c-0.03,0.01-0.07,0.04-0.12,0.06
							c-0.47,0.59,0.31,0.3,0.41,0.5l-0.29,0.18c0.39-0.15,0.19,0.22,0.42,0.23l-0.14,0.08l0.22-0.07l-0.27,0.18
							C110.91,82.76,111.23,82.74,111.36,82.87z"/>
						<path class="st3" d="M112.51,84.29L112.51,84.29C112.49,84.29,112.49,84.29,112.51,84.29z"/>
						<path class="st3" d="M105.89,67.75c0.02-0.01,0.04-0.01,0.07-0.01C105.89,67.73,105.9,67.75,105.89,67.75z"/>
					</g>
				</g>
			</g>
		</g>
	</g>
	<g>
		<g>
			<g>
				<g>
					<g>
						<polygon class="st3" points="97.84,37.28 97.92,37.22 97.67,37.34 						"/>
						<path class="st3" d="M97.21,37.44c-0.04,0.03-0.11,0.07-0.15,0.1l0.73-0.31C98.14,36.95,96.98,37.62,97.21,37.44z"/>
						<path class="st3" d="M97.26,37.37c0.13-0.13-0.19,0.04-0.3,0.1C97.21,37.33,96.93,37.58,97.26,37.37z"/>
						<path class="st3" d="M94.85,34.27c0,0,0.02,0,0.03,0C94.88,34.25,94.87,34.26,94.85,34.27z"/>
						<path class="st3" d="M93.25,34.27l-0.23,0.18c0.52-0.19,0.24,0.3,0.54,0.32l-0.09,0.05c0.21,0.46,0.88,0.51,1.36,0.78
							c-0.03,0.02-0.1,0.06-0.13,0.08c0.1-0.04,0.26-0.13,0.26-0.1c-0.05,0.04-0.11,0.07-0.14,0.09c-0.33,0.37,0.43,0.07,0.16,0.34
							c0.06-0.01,0.23-0.11,0.34-0.22c0.33,0.25,0.65,0.53,1.19,0.65c-0.04,0.05-0.15,0.13-0.29,0.22c0.84-0.15,0.78,0.34,0.87,0.7
							c0.18-0.1,0.17-0.15,0.37-0.23c0.15-0.24-0.54,0.09-0.28-0.2l0.17-0.1c0.07-0.13-0.43,0.26-0.26,0.05
							c0.12-0.12,0.22-0.13,0.22-0.15c-0.16-0.09-0.1-0.33-0.59-0.19c0.34-0.27-0.08-0.15,0.23-0.44c-0.16,0.06-0.15,0-0.4,0.15
							c-0.14-0.59-0.81-0.81-1.12-1.29c-0.83,0.3-0.23-0.56-0.65-0.64c0.02-0.02,0.05-0.04,0.07-0.05
							c-0.23,0.05-0.39-0.01-0.39-0.17l-0.34,0.14c0.1-1.02-0.77-1.28-1.03-2.04c-0.4-0.77-0.46-1.74-1.83-1.59
							c0.06-0.05,0.09-0.09,0.13-0.1c-0.28-0.06-0.21-0.42-0.49-0.46L90.94,30c-0.88,0.08-0.73-0.9-1.64-0.75
							c-0.4-0.51-0.97-0.98-1.6-1.3l0.12-0.12c-0.63-0.14-0.39-1.13-0.96-1.32c-0.13-0.66-1.49-0.13-1.53-0.88
							c0.32-0.82-1.23,0.09-0.87-0.74c0.42-1.37-0.6-1.25-1.63-1.21c-0.09-0.76-1.39-0.42-1.1-1.5c-0.63,0.18,0.14-0.93-0.18-1.06
							l-0.15,0.14c0.41-0.49-0.83,0.37-0.16-0.28l0.04-0.02c0.33-0.34-0.95,0.6-0.54,0.21l-0.19,0.14c-0.1-0.01,0.2-0.17,0.23-0.28
							c-0.04,0-0.33,0.26-0.26,0.14c0.73-0.6-0.28-0.01,0.56-0.68c0.02,0.03,0.29-0.3,0.52-0.38c0.07-0.09-0.05-0.14-0.4,0.15
							c-0.38,0.29-0.74,0.51-0.99,0.8l0.28-0.21c-0.26,0.24-0.13,0.12-0.33,0.29c0.03,0.11-0.36,0.43-0.48,0.62
							c0.01-0.01,0.02-0.01,0.03-0.02c0.36-0.23,0.21-0.02,0.19,0.05l-0.14,0.14c-0.3,0.28,0.69-0.42,0.13,0
							c0.27,0.05,0.41,0.24,0.56,0.41c0.22-0.15,0.1,0.15,0.45-0.23c-0.4,0.43-0.4,0.65-0.34,0.68c-0.04,0.03-0.09,0.07-0.08,0.05
							c-0.49,0.6,0.62-0.36,0.01,0.34c0.5-0.42-0.02,0.3,0.6-0.17c-0.1,0.11-0.19,0.2-0.28,0.27c0.13,0.17,0.11,0.5,0.21,0.64
							c0.52-0.28,0.06,0.44,0.72-0.01c-0.05,0.19-0.17,0.54,0.16,0.43l-0.08,0.06c0.15,0.09,0.32,0.21,0.76-0.06
							c-0.51,0.56-0.35,0.51-0.48,0.73c0.33-0.17,0.41,0.06,0.76-0.04c-0.23,0.26,0.2-0.01-0.15,0.36c1.03-0.36,1.19,0.28,1.02,1.16
							L83.7,26.6c0.24-0.15,0.73-0.54,1.03-0.75c-0.03,0.04-0.09,0.1-0.09,0.08c0.13,0-0.16,0.41-0.03,0.41
							c-0.06,0.06-0.06,0.06-0.13,0.11c0.22-0.1-0.16,0.41,0.19,0.2l-0.09,0.1l0.18-0.09c-0.12,0.12-0.3,0.3-0.28,0.23
							c0.44,0.66,1.62,0.6,2.09,1.24l-0.13,0.09l0.31-0.1c-0.06,0.06-0.09,0.08-0.13,0.11c-0.06,0.34,0.42,0.14,0.5,0.33
							c-0.06,0.06-0.19,0.15-0.24,0.24c0.42-0.23-0.26,0.58,0.46-0.04c-0.03,0.04-0.17,0.19-0.24,0.24c0.5,0.05,0.77,0.35,0.94,0.74
							c0.84-0.37,0.55,0.43,1.28,0.2l-0.12,0.12c0.74-0.1,0.6,0.69,1.01,0.93c0.08,0.19,0.31,0.14,0.45,0.27l-0.15,0.15
							c0.82-0.32-0.08,0.99,0.81,0.63l-0.23,0.18c0.37-0.27,0.02,0.26,0.58-0.28l-0.13,0.2c0.91-0.51-0.08,0.63,0.61,0.39
							l-0.15,0.11c0.16-0.04,0.3-0.05,0.21,0.1c-0.03,0.01-0.06,0.05-0.11,0.07c-0.39,0.65,0.39,0.32,0.52,0.52l-0.28,0.2
							c0.38-0.17,0.24,0.24,0.48,0.24l-0.13,0.1l0.22-0.09L92.64,34C92.75,34.17,93.09,34.14,93.25,34.27z"/>
						<path class="st3" d="M94.81,35.66L94.81,35.66C94.79,35.66,94.79,35.66,94.81,35.66z"/>
						<path class="st3" d="M79.67,21.85c0.01-0.02,0.02-0.04,0.03-0.06C79.66,21.83,79.68,21.83,79.67,21.85z"/>
					</g>
				</g>
			</g>
		</g>
	</g>
	<g>
		<g>
			<g>
				<g>
					<g>
						<polygon class="st3" points="85.85,136.04 85.94,136.09 85.74,135.9 						"/>
						<path class="st3" d="M85.51,135.49c-0.05-0.03-0.11-0.07-0.15-0.1l0.54,0.57C86.3,136.18,85.24,135.36,85.51,135.49z"/>
						<path class="st3" d="M85.6,135.51c0.18,0.06-0.1-0.17-0.19-0.26C85.63,135.43,85.28,135.28,85.6,135.51z"/>
						<path class="st3" d="M89.27,131.62c0,0.01,0,0.02,0,0.03C89.29,131.66,89.28,131.64,89.27,131.62z"/>
						<path class="st3" d="M89.65,129.74l-0.16-0.24c0.09,0.58-0.49,0.34-0.57,0.71l-0.05-0.09c-0.65,0.38-0.88,1.2-1.29,1.83
							c-0.01-0.03-0.07-0.1-0.08-0.13c0.04,0.1,0.13,0.26,0.09,0.27c-0.05-0.04-0.08-0.11-0.09-0.14c-0.43-0.25-0.12,0.54-0.44,0.33
							c0,0.07,0.13,0.23,0.25,0.33c-0.32,0.48-0.69,0.96-0.8,1.61c-0.07-0.02-0.17-0.11-0.28-0.23c0.29,0.89-0.24,1.04-0.65,1.34
							c0.15,0.14,0.21,0.09,0.35,0.26c0.3,0.04-0.23-0.52,0.16-0.39l0.14,0.14c0.16,0.01-0.38-0.33-0.11-0.25
							c0.16,0.07,0.19,0.17,0.21,0.16c0.07-0.21,0.34-0.26,0.1-0.73c0.35,0.25,0.15-0.17,0.51,0.05c-0.09-0.16-0.01-0.16-0.21-0.38
							c0.72-0.36,0.96-1.22,1.59-1.73c-0.25-0.87,0.75-0.4,0.91-0.9c0.02,0.02,0.04,0.05,0.05,0.07c-0.02-0.25,0.09-0.46,0.29-0.49
							l-0.1-0.37c1.28-0.06,1.85-1.09,2.91-1.46c1.16-0.49,2.33-0.58,2.79-2.12c0.04,0.07,0.07,0.1,0.06,0.15
							c0.21-0.32,0.63-0.22,0.82-0.54l0.04,0.07c0.34-1.02,1.5-0.76,1.81-1.79c0.86-0.41,1.78-0.98,2.58-1.63l0.07,0.15
							c0.55-0.69,1.65-0.27,2.25-0.86c0.91-0.03,1.1-1.62,2.08-1.52c0.82,0.51,0.68-1.36,1.48-0.81c1.45,0.74,1.97-0.42,2.58-1.52
							c1.02,0.04,1.41-1.4,2.6-0.9c0.16-0.72,1.11,0.33,1.47-0.01l-0.09-0.18c0.39,0.51,0.01-0.95,0.47-0.13l0,0.05
							c0.26,0.4-0.23-1.1,0.03-0.61l-0.07-0.22c0.08-0.1,0.11,0.24,0.22,0.29c0.02-0.04-0.15-0.4-0.04-0.3
							c0.37,0.88,0.17-0.29,0.58,0.7c-0.05,0.02,0.24,0.35,0.2,0.61c0.07,0.09,0.22-0.03,0.04-0.44c-0.16-0.45-0.25-0.87-0.49-1.18
							l0.11,0.33c-0.16-0.31-0.09-0.15-0.2-0.39c-0.15,0.01-0.36-0.45-0.54-0.61c0,0.01,0.01,0.02,0.01,0.04
							c0.09,0.42-0.09,0.22-0.17,0.19l-0.09-0.17c-0.19-0.37,0.15,0.8-0.08,0.14c-0.21,0.27-0.53,0.4-0.83,0.53
							c0.06,0.26-0.24,0.08,0.02,0.52c-0.3-0.51-0.59-0.55-0.66-0.49c-0.02-0.05-0.04-0.11-0.02-0.1c-0.46-0.63,0.08,0.73-0.43-0.06
							c0.23,0.61-0.36-0.07-0.14,0.67c-0.08-0.13-0.13-0.24-0.17-0.35c-0.28,0.1-0.68,0.02-0.92,0.09c0.03,0.61-0.58-0.03-0.44,0.77
							c-0.21-0.09-0.57-0.29-0.64,0.09l-0.02-0.1c-0.2,0.14-0.46,0.3-0.41,0.82c-0.38-0.66-0.41-0.48-0.61-0.66
							c0,0.39-0.34,0.43-0.43,0.83c-0.18-0.3-0.12,0.22-0.35-0.24c-0.22,1.18-1.13,1.22-2.12,0.88l-0.01-0.04
							c0.03,0.29,0.2,0.9,0.27,1.27c-0.03-0.04-0.06-0.11-0.04-0.12c-0.08,0.14-0.41-0.25-0.49-0.11c-0.04-0.08-0.04-0.08-0.05-0.16
							c-0.02,0.26-0.41-0.25-0.38,0.17l-0.07-0.12l0,0.21c-0.07-0.15-0.18-0.38-0.11-0.35c-1.12,0.35-1.8,1.68-2.91,2.1l-0.03-0.16
							l-0.07,0.36c-0.04-0.08-0.05-0.12-0.05-0.16c-0.39-0.12-0.44,0.45-0.73,0.52c-0.04-0.07-0.07-0.24-0.15-0.3
							c0.03,0.51-0.58-0.37-0.23,0.52c-0.03-0.03-0.14-0.22-0.15-0.3c-0.37,0.56-0.92,0.81-1.51,0.97c-0.02,1-0.88,0.58-0.99,1.43
							l-0.08-0.15c-0.28,0.84-1.2,0.64-1.73,1.1c-0.28,0.09-0.34,0.36-0.58,0.52l-0.12-0.18c0.01,0.94-1.26-0.1-1.2,0.94l-0.13-0.27
							c0.18,0.42-0.34,0.03,0.1,0.67l-0.2-0.15c0.27,1.04-0.78-0.06-0.77,0.73l-0.08-0.17c-0.01,0.18-0.06,0.34-0.22,0.25
							c0-0.03-0.04-0.07-0.04-0.13c-0.7-0.42-0.58,0.47-0.88,0.66l-0.16-0.31c0.09,0.43-0.4,0.32-0.48,0.6l-0.08-0.14l0.04,0.25
							l-0.19-0.26C89.94,129.14,89.87,129.53,89.65,129.74z"/>
						<path class="st3" d="M87.5,131.94C87.5,131.94,87.5,131.94,87.5,131.94C87.5,131.91,87.5,131.92,87.5,131.94z"/>
						<path class="st3" d="M113.17,115.84c0.02,0.01,0.04,0.03,0.06,0.05C113.2,115.82,113.19,115.85,113.17,115.84z"/>
					</g>
				</g>
			</g>
		</g>
	</g>
	<g>
		<g>
			<g>
				<g>
					<g>
						<polygon class="st3" points="61.61,135.89 61.68,135.97 61.56,135.72 						"/>
						<path class="st3" d="M61.49,135.24c-0.03-0.04-0.08-0.1-0.11-0.14l0.31,0.74C61.99,136.16,61.29,135.02,61.49,135.24z"/>
						<path class="st3" d="M61.57,135.28c0.15,0.12-0.03-0.2-0.09-0.31C61.62,135.21,61.34,134.96,61.57,135.28z"/>
						<path class="st3" d="M65.89,132.13c0,0,0,0.02,0,0.03C65.91,132.16,65.9,132.15,65.89,132.13z"/>
						<path class="st3" d="M66.14,130.23l-0.25-0.15c0.18,0.21,0.1,0.34,0.01,0.41c-0.09,0.09-0.26,0.06-0.28,0.22l-0.05-0.09
							c-0.61,0.28-0.89,1.06-1.33,1.63c-0.02-0.04-0.05-0.1-0.06-0.14c0.03,0.1,0.1,0.28,0.06,0.28c-0.04-0.05-0.07-0.12-0.07-0.15
							c-0.39-0.32-0.18,0.5-0.47,0.24c-0.01,0.07,0.09,0.24,0.2,0.36c-0.38,0.41-0.81,0.81-1.05,1.43
							c-0.06-0.04-0.14-0.15-0.23-0.29c0.05,0.92-0.53,0.93-1.01,1.1c0.1,0.18,0.16,0.15,0.24,0.36c0.27,0.13-0.05-0.58,0.28-0.35
							l0.1,0.17c0.16,0.05-0.26-0.43-0.03-0.27c0.13,0.11,0.13,0.22,0.16,0.22c0.13-0.19,0.42-0.17,0.32-0.68
							c0.29,0.33,0.2-0.12,0.5,0.18c-0.05-0.17,0.02-0.17-0.12-0.42c0.76-0.24,1.17-1.02,1.83-1.43c-0.17-0.9,0.76-0.32,0.96-0.79
							c0.02,0.02,0.04,0.05,0.05,0.07c0-0.25,0.11-0.45,0.32-0.46c-0.01-0.14-0.03-0.27-0.05-0.39c0.41-0.01,0.67-0.29,0.9-0.56
							c0.19-0.22,0.32-0.46,0.44-0.71c0.23-0.49,0.39-1,0.72-1.44c0.63-1.03,1.56-1.84,0.88-3.29c0.08,0.03,0.12,0.03,0.15,0.07
							c-0.05-0.37,0.33-0.56,0.26-0.91l0.08,0.03c-0.42-0.95,0.58-1.51,0.08-2.44c0.33-0.84,0.55-1.85,0.6-2.83l0.16,0.05
							c-0.07-0.4,0.17-0.78,0.39-1.03c0.12-0.11,0.19-0.24,0.31-0.3c0.15-0.05,0.26-0.11,0.34-0.24c0.83-0.08,0.84-1.66,1.77-1.65
							c0.85,0.43,0.46-1.39,1.3-0.93c1.48,0.57,1.82-0.61,2.2-1.76c0.98-0.08,1.09-1.53,2.3-1.2c0.02-0.72,1.1,0.17,1.39-0.21
							l-0.12-0.17c0.47,0.44-0.17-0.93,0.41-0.2l0.01,0.04c0.32,0.35-0.43-1.04-0.08-0.6l-0.11-0.2c0.05-0.11,0.15,0.22,0.27,0.25
							c0.01-0.04-0.22-0.36-0.09-0.28c0.52,0.8,0.1-0.31,0.68,0.59c-0.05,0.03,0.3,0.3,0.31,0.56c0.09,0.07,0.21-0.06-0.05-0.44
							c-0.25-0.41-0.41-0.8-0.7-1.06l0.17,0.31c-0.22-0.28-0.12-0.13-0.27-0.35c-0.14,0.03-0.43-0.39-0.62-0.51
							c0.01,0.01,0.01,0.02,0.02,0.03c0.17,0.39-0.04,0.23-0.12,0.21L80,109.93c-0.25-0.33,0.3,0.76-0.04,0.14
							c-0.14,0.3-0.41,0.46-0.67,0.63c0.11,0.25-0.21,0.11,0.12,0.5c-0.38-0.45-0.65-0.45-0.71-0.39c-0.03-0.05-0.06-0.1-0.03-0.09
							c-0.55-0.55,0.21,0.7-0.42,0c0.33,0.57-0.35-0.03-0.01,0.67c-0.09-0.11-0.17-0.22-0.23-0.32c-0.24,0.14-0.63,0.1-0.85,0.21
							c0.14,0.59-0.55,0.04-0.28,0.81c-0.21-0.06-0.59-0.22-0.59,0.16l-0.04-0.09c-0.17,0.16-0.38,0.35-0.25,0.85
							c-0.46-0.61-0.47-0.43-0.68-0.58c0.06,0.38-0.25,0.46-0.28,0.85c-0.22-0.28-0.08,0.23-0.36-0.2
							c-0.02,1.18-0.88,1.32-1.87,1.06l-0.01-0.04c0.07,0.28,0.32,0.86,0.43,1.22c-0.03-0.03-0.08-0.1-0.06-0.11
							c-0.06,0.15-0.42-0.21-0.48-0.07c-0.04-0.07-0.04-0.07-0.07-0.15c0.02,0.26-0.43-0.21-0.33,0.2l-0.08-0.11l0.03,0.21
							c-0.09-0.14-0.22-0.36-0.15-0.34c-0.5,0.22-0.87,0.67-1.24,1.12c-0.13,0.19-0.53,0.55-0.81,0.81c-0.2,0.1-0.2,0.34-0.25,0.54
							c-0.04,0.2-0.1,0.4-0.17,0.59l-0.14-0.11c0.06,0.15,0.13,0.23,0.21,0.33c-0.08-0.02-0.12-0.04-0.15-0.06
							c-0.35,0.19,0.03,0.59-0.11,0.83c-0.08-0.02-0.22-0.11-0.32-0.1c0.39,0.32-0.66,0.14,0.23,0.5c-0.05,0-0.25-0.06-0.32-0.1
							c0.15,0.61-0.02,1.15-0.33,1.64c0.7,0.69-0.2,0.96,0.31,1.62l-0.16-0.05c0.4,0.78-0.43,1.21-0.5,1.86
							c-0.15,0.23-0.01,0.47-0.09,0.73l-0.21-0.06c0.63,0.7-1,0.66-0.31,1.4l-0.26-0.13c0.4,0.22-0.24,0.21,0.49,0.45l-0.25,0
							c0.85,0.66-0.65,0.38-0.16,0.99l-0.16-0.09c0.1,0.15,0.16,0.3-0.03,0.31c-0.02-0.02-0.07-0.04-0.11-0.08
							c-0.8,0.03-0.18,0.67-0.35,0.98l-0.3-0.17c0.31,0.31-0.16,0.44-0.08,0.71l-0.14-0.08l0.16,0.2l-0.29-0.14
							C66.1,129.62,66.24,129.98,66.14,130.23z"/>
						<path class="st3" d="M64.16,132.24L64.16,132.24C64.16,132.22,64.16,132.22,64.16,132.24z"/>
						<path class="st3" d="M80.15,109.81c0.02,0.01,0.04,0.02,0.06,0.04C80.18,109.8,80.17,109.82,80.15,109.81z"/>
					</g>
				</g>
			</g>
		</g>
	</g>
	<g>
		<g>
			<g>
				<g>
					<g>
						<polygon class="st3" points="103.24,136.16 103.31,136.23 103.21,135.97 						"/>
						<path class="st3" d="M103.23,135.44c-0.04-0.04-0.08-0.11-0.12-0.14l0.24,0.78C103.68,136.39,103.01,135.23,103.23,135.44z"/>
						<path class="st3" d="M103.33,135.47c0.18,0.1,0-0.22-0.05-0.34C103.41,135.38,103.09,135.15,103.33,135.47z"/>
						<path class="st3" d="M109.9,131.03c-0.01,0.01-0.01,0.02-0.01,0.03C109.91,131.07,109.91,131.05,109.9,131.03z"/>
						<path class="st3" d="M111.01,128.87l-0.13-0.26c-0.06,0.65-0.71,0.43-0.94,0.84l-0.03-0.1c-0.95,0.45-1.5,1.37-2.26,2.11
							c0-0.03-0.04-0.11-0.05-0.15c0.01,0.11,0.07,0.3,0,0.31c-0.05-0.05-0.06-0.12-0.06-0.16c-0.44-0.29-0.37,0.61-0.69,0.37
							c-0.02,0.08,0.06,0.26,0.17,0.37c-0.61,0.54-1.28,1.09-1.76,1.86c-0.07-0.03-0.15-0.14-0.23-0.29
							c-0.16,1.04-0.94,1.18-1.61,1.46c0.09,0.19,0.18,0.14,0.24,0.36c0.34,0.09,0.07-0.65,0.46-0.45l0.09,0.18
							c0.2,0.02-0.25-0.44,0.02-0.31c0.14,0.11,0.13,0.22,0.16,0.22c0.23-0.24,0.61-0.28,0.6-0.85c0.3,0.32,0.3-0.18,0.62,0.1
							c-0.02-0.19,0.07-0.2-0.06-0.46c1.07-0.42,1.81-1.42,2.81-2c0.01-0.99,1.1-0.49,1.5-1.07c0.02,0.02,0.04,0.05,0.04,0.07
							c0.07-0.29,0.28-0.53,0.55-0.57l-0.01-0.41c1.66-0.18,2.71-1.42,4.19-1.93c1.61-0.7,3.2-0.96,4.15-2.73
							c0.04,0.07,0.07,0.1,0.05,0.16c0.34-0.39,0.88-0.34,1.2-0.72l0.04,0.07c0.66-1.17,2.12-1.06,2.75-2.23
							c1.22-0.56,2.53-1.34,3.71-2.15l0.07,0.15c0.87-0.82,2.23-0.53,3.14-1.24c1.21-0.15,1.77-1.9,3.06-1.9
							c0.99,0.46,1.17-1.54,2.14-1.03c1.79,0.64,2.72-0.64,3.77-1.85c1.37-0.04,2.21-1.58,3.71-1.09c0.39-0.76,1.42,0.32,1.99-0.03
							l-0.08-0.19c0.4,0.53,0.27-0.98,0.66-0.13l-0.01,0.05c0.24,0.42-0.01-1.15,0.21-0.63l-0.04-0.23
							c0.13-0.11,0.08,0.25,0.22,0.31c0.04-0.04-0.09-0.41,0.04-0.31c0.25,0.92,0.32-0.29,0.58,0.75c-0.08,0.02,0.22,0.37,0.09,0.63
							c0.08,0.09,0.28-0.01,0.17-0.45c-0.08-0.48-0.06-0.91-0.29-1.24l0.04,0.35c-0.13-0.33-0.08-0.16-0.15-0.41
							c-0.22,0-0.36-0.48-0.56-0.65c0,0.01,0.01,0.02,0.01,0.04c0,0.43-0.2,0.22-0.3,0.19l-0.08-0.18
							c-0.15-0.38-0.03,0.83-0.14,0.14c-0.37,0.28-0.84,0.4-1.29,0.55c0.01,0.27-0.35,0.08-0.1,0.54c-0.28-0.53-0.67-0.57-0.78-0.5
							c-0.01-0.05-0.03-0.12,0-0.1c-0.47-0.64-0.07,0.76-0.58-0.05c0.17,0.63-0.48-0.06-0.36,0.71c-0.07-0.13-0.12-0.25-0.15-0.36
							c-0.41,0.11-0.93,0.05-1.28,0.15c-0.1,0.64-0.79,0-0.77,0.84c-0.26-0.09-0.71-0.27-0.88,0.14l-0.01-0.1
							c-0.3,0.17-0.69,0.36-0.73,0.91c-0.37-0.67-0.45-0.48-0.68-0.65c-0.09,0.41-0.56,0.48-0.76,0.91
							c-0.18-0.3-0.21,0.25-0.42-0.22c-0.54,1.28-1.77,1.41-3.02,1.16l0-0.04c-0.01,0.31,0.09,0.94,0.11,1.33
							c-0.03-0.04-0.06-0.11-0.04-0.12c-0.13,0.16-0.5-0.22-0.64-0.06c-0.03-0.08-0.03-0.08-0.04-0.16
							c-0.07,0.28-0.5-0.22-0.53,0.22l-0.07-0.12l-0.05,0.23c-0.07-0.15-0.17-0.39-0.08-0.37c-1.56,0.53-2.72,2.03-4.26,2.65
							l-0.02-0.17l-0.16,0.4c-0.04-0.08-0.04-0.12-0.04-0.16c-0.5-0.07-0.67,0.55-1.06,0.66c-0.03-0.07-0.05-0.25-0.15-0.3
							c-0.06,0.54-0.7-0.32-0.4,0.6c-0.03-0.03-0.14-0.22-0.14-0.3c-0.6,0.65-1.36,1.02-2.17,1.28c-0.21,1.09-1.26,0.76-1.58,1.7
							l-0.08-0.15c-0.54,0.96-1.7,0.88-2.49,1.46c-0.38,0.13-0.52,0.44-0.87,0.65l-0.11-0.18c-0.19,1.04-1.61,0.05-1.77,1.19
							l-0.1-0.28c0.13,0.45-0.45,0.08-0.03,0.73L116,126c0.1,1.13-0.99,0.03-1.16,0.91l-0.06-0.18c-0.06,0.2-0.16,0.39-0.35,0.31
							c0-0.03-0.03-0.07-0.03-0.14c-0.79-0.38-0.85,0.59-1.31,0.83l-0.12-0.32c-0.01,0.47-0.6,0.38-0.78,0.71l-0.07-0.15l-0.03,0.28
							l-0.17-0.28C111.54,128.17,111.35,128.62,111.01,128.87z"/>
						<path class="st3" d="M107.55,131.46C107.55,131.46,107.55,131.46,107.55,131.46C107.55,131.43,107.55,131.44,107.55,131.46z"
							/>
						<path class="st3" d="M145.23,111.32c0.02,0.01,0.05,0.03,0.07,0.05C145.28,111.3,145.25,111.32,145.23,111.32z"/>
					</g>
				</g>
			</g>
		</g>
	</g>
</g>
</svg>
